<?xml version="1.0" encoding="utf-8"?>
<!-- Generator: Adobe Illustrator 15.0.0, SVG Export Plug-In . SVG Version: 6.00 Build 0)  -->
<!DOCTYPE svg PUBLIC "-//W3C//DTD SVG 1.1//EN" "http://www.w3.org/Graphics/SVG/1.1/DTD/svg11.dtd">
<svg version="1.1" id="Layer_2" xmlns="http://www.w3.org/2000/svg" xmlns:xlink="http://www.w3.org/1999/xlink" x="0px" y="0px"
	 width="200px" height="90px" viewBox="-90 -34.953 200 90" enable-background="new -90 -34.953 200 90" xml:space="preserve">
<g>
	<path fill="#E76025" d="M-54.734-14.914c4.211,1.672,7.398,4.641,9.078,8.133v-1.391c0-5.352-3.711-10.25-9.531-12.562l-25.203-10
		v5.609l0.461,0.18L-54.734-14.914z"/>
	<path fill="#F0A61F" d="M-55.227-13.703l-25.203-10v5.609l0.461,0.18l25.195,10c4.211,1.672,7.391,4.641,9.07,8.133v-1.359
		C-45.656-6.5-49.367-11.383-55.227-13.703z"/>
	<path fill="#65A644" d="M-55.227-6.719l-25.203-10v5.609l0.461,0.188l25.195,10c4.211,1.664,7.391,4.625,9.07,8.125V5.812
		C-45.656,0.508-49.367-4.398-55.227-6.719z"/>
	<path fill="#55528E" d="M-55.227,0.297l-25.203-10v4.391c0,0.43,0.031,0.82,0.07,1.25l0.398,0.141l25.203,10
		c4.203,1.68,7.383,4.641,9.07,8.125v-1.398C-45.656,7.5-49.367,2.609-55.227,0.297z"/>
	<path fill="#31AFD1" d="M-55.227,7.328L-80.07-2.578l-0.32-0.141v1.289v1.719V1.68v3.883v1.719v1.383v3.898v1.711v1.398v3.891
		v1.727v1.383c0,5.352,3.68,10.203,9.5,12.531l17.352,6.781l7.891,8.906v-5.078v-0.906v-0.203v-0.75v-5.07v-0.961v-0.219v-0.742
		v-5.078v-0.961v-0.211V29.93v-5.078v-0.961v-0.234v-0.734v-3.031C-45.656,14.484-49.367,9.641-55.227,7.328z"/>
</g>
<g>
	<path fill="#231F20" d="M-28-11.969l-3.641,8.938h-0.711l-3.641-8.938v8.938h-1.68v-11.242h2.43l3.281,8.07l3.289-8.07h2.43v11.242
		h-1.68v-8.938H-28z"/>
	<path fill="#231F20" d="M-15.5-14.453c3.359,0,5.68,2.461,5.68,5.82c0,3.32-2.32,5.82-5.68,5.82c-3.352,0-5.672-2.461-5.672-5.82
		C-21.141-11.969-18.852-14.453-15.5-14.453z M-15.5-12.922c-2.422,0-3.93,1.812-3.93,4.312c0,2.469,1.5,4.328,3.93,4.328
		c2.391,0,3.93-1.859,3.93-4.328C-11.578-11.109-13.109-12.922-15.5-12.922z"/>
	<path fill="#231F20" d="M-4.695-14.242h4.039c3.5,0,5.82,2.398,5.82,5.633c0,3.25-2.32,5.602-5.82,5.602h-3.992L-4.695-14.242
		L-4.695-14.242z M-0.648-4.492c2.609,0,4.102-1.859,4.102-4.141c0-2.32-1.453-4.141-4.102-4.141h-2.32v8.281H-0.648L-0.648-4.492z"
		/>
	<path fill="#231F20" d="M10.344-14.242h7.562v1.492h-5.859v3.281h5.75v1.5h-5.75v3.5h5.859v1.5h-7.562V-14.242z"/>
	<path fill="#231F20" d="M26.914-7.359h-2.133v4.328h-1.656v-11.242h4.734c2.148,0,3.609,1.391,3.609,3.461
		c0,2.039-1.359,3.109-2.781,3.289l2.891,4.5h-1.969L26.914-7.359z M27.617-12.773h-2.812v3.922h2.812
		c1.219,0,2.102-0.781,2.102-1.961S28.836-12.773,27.617-12.773z"/>
	<path fill="#231F20" d="M38.32-11.633v8.641h-1.68v-11.25h1.75l6.109,8.43v-8.43h1.68v11.25h-1.641L38.32-11.633z"/>
	<path fill="#231F20" d="M-37.672,4.469h1.68v9.75h5.117v1.492h-6.797V4.469z"/>
	<path fill="#231F20" d="M-18.781,13.391h-5.5l-0.891,2.297h-1.891l4.461-11.219h2.102l4.461,11.242h-1.852L-18.781,13.391z
		 M-23.82,11.898h4.531l-2.281-5.984L-23.82,11.898z"/>
	<path fill="#231F20" d="M-9.859,7.062v8.625h-1.688V4.469h1.758l6.102,8.422V4.469h1.664v11.242h-1.633L-9.859,7.062z"/>
	<path fill="#231F20" d="M8.953,4.281c2.109,0,3.508,0.977,4.469,2.227l-1.359,0.773c-0.633-0.859-1.781-1.5-3.062-1.5
		c-2.359,0-4.109,1.797-4.109,4.328c0,2.5,1.75,4.328,4.109,4.328c1.25,0,2.32-0.609,2.852-1.102v-2.031H8.25v-1.5h5.281v4.141
		c-1.07,1.211-2.641,1.992-4.531,1.992c-3.219,0-5.82-2.32-5.82-5.82C3.133,6.594,5.734,4.281,8.953,4.281z"/>
	<path fill="#231F20" d="M18.766,4.469h1.711v6.789c0,1.922,1.07,3.125,3.039,3.125s3.047-1.203,3.047-3.125V4.469h1.711v6.828
		c0,2.766-1.57,4.594-4.719,4.594c-3.133,0-4.758-1.828-4.758-4.594L18.766,4.469L18.766,4.469z"/>
	<path fill="#231F20" d="M40.508,13.391H35l-0.875,2.297h-1.859l4.445-11.234h2.109l4.461,11.234h-1.859L40.508,13.391z
		 M35.469,11.898H40l-2.281-5.984L35.469,11.898z"/>
	<path fill="#231F20" d="M52.461,4.281c2.109,0,3.508,0.977,4.453,2.227l-1.352,0.773c-0.633-0.859-1.797-1.5-3.07-1.5
		c-2.367,0-4.117,1.797-4.117,4.328c0,2.5,1.75,4.328,4.117,4.328c1.25,0,2.312-0.609,2.852-1.102v-2.031h-3.609v-1.5h5.289v4.141
		c-1.07,1.211-2.648,1.992-4.531,1.992c-3.211,0-5.82-2.32-5.82-5.82C46.641,6.594,49.25,4.281,52.461,4.281z"/>
	<path fill="#231F20" d="M62.281,4.469h7.562v1.5h-5.875V9.25h5.727v1.484h-5.727v3.516h5.836v1.484H62.25L62.281,4.469
		L62.281,4.469z"/>
	<path fill="#231F20" d="M-29.391,32.125h-5.492l-0.891,2.312h-1.859l4.461-11.25h2.102l4.461,11.25h-1.852L-29.391,32.125z
		 M-34.422,30.633h4.531l-2.281-5.969L-34.422,30.633z"/>
	<path fill="#231F20" d="M-22.07,31.547c0.75,0.859,1.969,1.578,3.539,1.578c1.82,0,2.469-0.922,2.469-1.75
		c0-1.18-1.289-1.484-2.703-1.891c-1.828-0.453-3.898-1-3.898-3.281c0-1.859,1.641-3.203,3.961-3.203
		c1.75,0,3.109,0.578,4.102,1.562l-0.961,1.25c-0.859-0.906-2.039-1.328-3.25-1.328c-1.25,0-2.109,0.648-2.109,1.578
		c0,1,1.219,1.328,2.609,1.68c1.82,0.508,3.961,1.062,3.961,3.461c0,1.75-1.211,3.391-4.25,3.391c-1.992,0-3.461-0.711-4.422-1.797
		L-22.07,31.547z"/>
	<path fill="#231F20" d="M-9.047,31.547c0.758,0.859,1.969,1.578,3.531,1.578c1.828,0,2.477-0.922,2.477-1.75
		c0-1.18-1.281-1.484-2.711-1.891c-1.82-0.453-3.891-1-3.891-3.281C-9.641,24.344-8,23-5.68,23c1.75,0,3.109,0.578,4.102,1.562
		l-0.961,1.25c-0.852-0.906-2.039-1.328-3.25-1.328c-1.25,0-2.102,0.648-2.102,1.578c0,1,1.219,1.328,2.594,1.68
		c1.828,0.508,3.969,1.062,3.969,3.461c0,1.75-1.219,3.391-4.25,3.391c-2,0-3.469-0.711-4.43-1.797L-9.047,31.547z"/>
	<path fill="#231F20" d="M8.953,23.023c3.344,0,5.664,2.461,5.664,5.82c0,3.32-2.32,5.812-5.664,5.812
		c-3.352,0-5.672-2.453-5.672-5.812C3.312,25.484,5.602,23.023,8.953,23.023z M8.953,24.516c-2.422,0-3.938,1.82-3.938,4.328
		c0,2.453,1.5,4.312,3.938,4.312c2.391,0,3.93-1.859,3.93-4.312C12.883,26.336,11.344,24.516,8.953,24.516z"/>
	<path fill="#231F20" d="M19.297,28.844c0-3.469,2.578-5.82,5.75-5.82c2.219,0,3.609,1.07,4.469,2.398l-1.453,0.734
		c-0.594-0.914-1.703-1.641-3.023-1.641c-2.289,0-4.039,1.781-4.039,4.328c0,2.492,1.75,4.312,4.039,4.312
		c1.32,0,2.43-0.656,3.023-1.641l1.453,0.758c-0.906,1.328-2.25,2.383-4.469,2.383C21.875,34.656,19.297,32.273,19.297,28.844z"/>
	<path fill="#231F20" d="M34.336,23.211h1.68v11.227h-1.68V23.211z"/>
	<path fill="#231F20" d="M48.75,32.125h-5.5l-0.891,2.312h-1.852l4.453-11.25h2.109l4.453,11.25h-1.852L48.75,32.125z
		 M43.758,30.633h4.531l-2.273-5.969L43.758,30.633z"/>
	<path fill="#231F20" d="M57.641,24.664h-3.508v-1.492h8.641v1.492h-3.461v9.758h-1.672V24.664z"/>
	<path fill="#231F20" d="M67.672,23.211h1.688v11.227h-1.688V23.211z"/>
	<path fill="#231F20" d="M80.156,23.023c3.359,0,5.688,2.461,5.688,5.82c0,3.32-2.328,5.812-5.688,5.812
		c-3.344,0-5.664-2.453-5.664-5.812S76.812,23.023,80.156,23.023z M80.156,24.516c-2.422,0-3.922,1.82-3.922,4.328
		c0,2.453,1.5,4.312,3.922,4.312c2.406,0,3.945-1.859,3.945-4.312C84.094,26.336,82.562,24.516,80.156,24.516z"/>
	<path fill="#231F20" d="M92.656,25.812v8.625h-1.68v-11.25h1.758l6.094,8.438v-8.438h1.68v11.25h-1.641L92.656,25.812z"/>
</g>
</svg>
